# xmcd CD database file
#
# Track frame offsets:
#	150
#	40794
#	67293
#	92541
#	117753
#	133761
#	173941
#	194211
#	223599
#
# Disc length: 3236 seconds
#
# Revision: 0
# Processed by: cddbd v1.5.2PL0 Copyright (c) Steve Scherf et al.
# Submitted via: CDex 1.70beta2
#
DISCID=8a0ca209
DTITLE=AR Quartet - AR Quartet
DYEAR=2014
DGENRE=Jazz
TTITLE0=GSM Tango
TTITLE1=Night Songs
TTITLE2=Medianoche
TTITLE3=Ground X
TTITLE4=Chaconne
TTITLE5=Bye Bye
TTITLE6=By Rail
TTITLE7=One More Waltz
TTITLE8=Outoa
EXTD=YEAR: 2014
EXTT0=
EXTT1=
EXTT2=
EXTT3=
EXTT4=
EXTT5=
EXTT6=
EXTT7=
EXTT8=
PLAYORDER=
